<mxfile host="app.diagrams.net" modified="2022-11-15T15:35:43.169Z" agent="5.0 (Windows NT 10.0; Win64; x64) AppleWebKit/537.36 (KHTML, like Gecko) Chrome/107.0.0.0 Safari/537.36" etag="gOY_LGn3ht0rT_41_f-0" version="20.5.3" type="github" pages="2">
  <diagram id="Bj94aZayj26S5X8Nx8Ga" name="第 1 页">
    <mxGraphModel dx="900" dy="1059" grid="1" gridSize="10" guides="1" tooltips="1" connect="1" arrows="1" fold="1" page="1" pageScale="1" pageWidth="827" pageHeight="1169" math="0" shadow="0">
      <root>
        <mxCell id="0" />
        <mxCell id="1" parent="0" />
        <mxCell id="KIbIVKKondeWLqKM8XB7-9" value="" style="shape=partialRectangle;whiteSpace=wrap;html=1;bottom=1;right=1;left=1;top=0;fillColor=#dae8fc;routingCenterX=-0.5;sketch=1;hachureGap=4;jiggle=2;fontFamily=Architects Daughter;fontSource=https%3A%2F%2Ffonts.googleapis.com%2Fcss%3Ffamily%3DArchitects%2BDaughter;fontSize=20;strokeColor=#6c8ebf;" vertex="1" parent="1">
          <mxGeometry x="1400" y="830" width="290" height="70" as="geometry" />
        </mxCell>
        <mxCell id="KIbIVKKondeWLqKM8XB7-1" value="task:0.5s" style="rounded=0;whiteSpace=wrap;html=1;sketch=1;hachureGap=4;jiggle=2;fontFamily=Architects Daughter;fontSource=https%3A%2F%2Ffonts.googleapis.com%2Fcss%3Ffamily%3DArchitects%2BDaughter;fontSize=20;fillColor=#e1d5e7;strokeColor=#9673a6;" vertex="1" parent="1">
          <mxGeometry x="1200" y="660" width="120" height="60" as="geometry" />
        </mxCell>
        <mxCell id="KIbIVKKondeWLqKM8XB7-4" value="1:C" style="html=1;whiteSpace=wrap;container=1;recursiveResize=0;collapsible=0;sketch=1;hachureGap=4;jiggle=2;fontFamily=Architects Daughter;fontSource=https%3A%2F%2Ffonts.googleapis.com%2Fcss%3Ffamily%3DArchitects%2BDaughter;fontSize=20;fillColor=#f8cecc;strokeColor=#b85450;" vertex="1" parent="1">
          <mxGeometry x="1190" y="830" width="160" height="70" as="geometry" />
        </mxCell>
        <mxCell id="KIbIVKKondeWLqKM8XB7-7" value="&lt;font style=&quot;font-size: 15px;&quot;&gt;20:task&lt;/font&gt;" style="text;html=1;strokeColor=none;fillColor=#dae8fc;align=center;verticalAlign=middle;whiteSpace=wrap;rounded=0;sketch=1;hachureGap=4;jiggle=2;fontFamily=Architects Daughter;fontSource=https%3A%2F%2Ffonts.googleapis.com%2Fcss%3Ffamily%3DArchitects%2BDaughter;fontSize=20;" vertex="1" parent="1">
          <mxGeometry x="1515" y="850" width="60" height="30" as="geometry" />
        </mxCell>
        <mxCell id="KIbIVKKondeWLqKM8XB7-8" value="&lt;font style=&quot;font-size: 24px;&quot;&gt;1:s&lt;/font&gt;" style="text;html=1;strokeColor=#6c8ebf;fillColor=#dae8fc;align=center;verticalAlign=middle;whiteSpace=wrap;rounded=0;sketch=1;hachureGap=4;jiggle=2;fontFamily=Architects Daughter;fontSource=https%3A%2F%2Ffonts.googleapis.com%2Fcss%3Ffamily%3DArchitects%2BDaughter;fontSize=20;" vertex="1" parent="1">
          <mxGeometry x="1515" y="780" width="60" height="30" as="geometry" />
        </mxCell>
        <mxCell id="KIbIVKKondeWLqKM8XB7-11" value="" style="shape=flexArrow;endArrow=classic;html=1;rounded=0;sketch=1;hachureGap=4;jiggle=2;fontFamily=Architects Daughter;fontSource=https%3A%2F%2Ffonts.googleapis.com%2Fcss%3Ffamily%3DArchitects%2BDaughter;fontSize=15;entryX=1.019;entryY=0.495;entryDx=0;entryDy=0;entryPerimeter=0;endWidth=8.870967741935484;endSize=5.556420233463036;width=5.369649805447471;" edge="1" parent="1" source="KIbIVKKondeWLqKM8XB7-9" target="KIbIVKKondeWLqKM8XB7-4">
          <mxGeometry width="50" height="50" relative="1" as="geometry">
            <mxPoint x="1460" y="930" as="sourcePoint" />
            <mxPoint x="1510" y="880" as="targetPoint" />
            <Array as="points">
              <mxPoint x="1390" y="865" />
            </Array>
          </mxGeometry>
        </mxCell>
        <mxCell id="KIbIVKKondeWLqKM8XB7-12" value="" style="shape=partialRectangle;whiteSpace=wrap;html=1;bottom=1;right=1;left=1;top=0;fillColor=#dae8fc;routingCenterX=-0.5;sketch=1;hachureGap=4;jiggle=2;fontFamily=Architects Daughter;fontSource=https%3A%2F%2Ffonts.googleapis.com%2Fcss%3Ffamily%3DArchitects%2BDaughter;fontSize=20;strokeColor=#6c8ebf;" vertex="1" parent="1">
          <mxGeometry x="1400" y="1020" width="290" height="70" as="geometry" />
        </mxCell>
        <mxCell id="KIbIVKKondeWLqKM8XB7-13" value="1:C" style="html=1;whiteSpace=wrap;container=1;recursiveResize=0;collapsible=0;sketch=1;hachureGap=4;jiggle=2;fontFamily=Architects Daughter;fontSource=https%3A%2F%2Ffonts.googleapis.com%2Fcss%3Ffamily%3DArchitects%2BDaughter;fontSize=20;fillColor=#f8cecc;strokeColor=#b85450;" vertex="1" parent="1">
          <mxGeometry x="1190" y="1020" width="160" height="70" as="geometry" />
        </mxCell>
        <mxCell id="KIbIVKKondeWLqKM8XB7-14" value="&lt;font style=&quot;font-size: 15px;&quot;&gt;20:task&lt;/font&gt;" style="text;html=1;strokeColor=none;fillColor=#dae8fc;align=center;verticalAlign=middle;whiteSpace=wrap;rounded=0;sketch=1;hachureGap=4;jiggle=2;fontFamily=Architects Daughter;fontSource=https%3A%2F%2Ffonts.googleapis.com%2Fcss%3Ffamily%3DArchitects%2BDaughter;fontSize=20;" vertex="1" parent="1">
          <mxGeometry x="1515" y="1040" width="60" height="30" as="geometry" />
        </mxCell>
        <mxCell id="KIbIVKKondeWLqKM8XB7-15" value="&lt;font style=&quot;font-size: 24px;&quot;&gt;1:s&lt;/font&gt;" style="text;html=1;strokeColor=#6c8ebf;fillColor=#dae8fc;align=center;verticalAlign=middle;whiteSpace=wrap;rounded=0;sketch=1;hachureGap=4;jiggle=2;fontFamily=Architects Daughter;fontSource=https%3A%2F%2Ffonts.googleapis.com%2Fcss%3Ffamily%3DArchitects%2BDaughter;fontSize=20;" vertex="1" parent="1">
          <mxGeometry x="1515" y="970" width="60" height="30" as="geometry" />
        </mxCell>
        <mxCell id="KIbIVKKondeWLqKM8XB7-16" value="" style="shape=flexArrow;endArrow=classic;html=1;rounded=0;sketch=1;hachureGap=4;jiggle=2;fontFamily=Architects Daughter;fontSource=https%3A%2F%2Ffonts.googleapis.com%2Fcss%3Ffamily%3DArchitects%2BDaughter;fontSize=15;entryX=1.019;entryY=0.495;entryDx=0;entryDy=0;entryPerimeter=0;endWidth=8.870967741935484;endSize=5.556420233463036;width=5.369649805447471;" edge="1" parent="1" source="KIbIVKKondeWLqKM8XB7-12" target="KIbIVKKondeWLqKM8XB7-13">
          <mxGeometry width="50" height="50" relative="1" as="geometry">
            <mxPoint x="1460" y="1120" as="sourcePoint" />
            <mxPoint x="1510" y="1070" as="targetPoint" />
            <Array as="points">
              <mxPoint x="1390" y="1055" />
            </Array>
          </mxGeometry>
        </mxCell>
        <mxCell id="KIbIVKKondeWLqKM8XB7-18" value="" style="endArrow=none;html=1;sketch=1;hachureGap=4;jiggle=2;fontFamily=Architects Daughter;fontSource=https%3A%2F%2Ffonts.googleapis.com%2Fcss%3Ffamily%3DArchitects%2BDaughter;fontSize=15;jumpSize=0;curved=1;" edge="1" parent="1">
          <mxGeometry width="50" height="50" relative="1" as="geometry">
            <mxPoint x="1380" y="1410" as="sourcePoint" />
            <mxPoint x="1380" y="630" as="targetPoint" />
          </mxGeometry>
        </mxCell>
        <mxCell id="KIbIVKKondeWLqKM8XB7-19" value="" style="shape=partialRectangle;whiteSpace=wrap;html=1;bottom=1;right=1;left=1;top=0;fillColor=#dae8fc;routingCenterX=-0.5;sketch=1;hachureGap=4;jiggle=2;fontFamily=Architects Daughter;fontSource=https%3A%2F%2Ffonts.googleapis.com%2Fcss%3Ffamily%3DArchitects%2BDaughter;fontSize=20;strokeColor=#6c8ebf;" vertex="1" parent="1">
          <mxGeometry x="1760" y="830" width="290" height="70" as="geometry" />
        </mxCell>
        <mxCell id="KIbIVKKondeWLqKM8XB7-20" value="&lt;font style=&quot;font-size: 15px;&quot;&gt;20:task&lt;/font&gt;" style="text;html=1;strokeColor=none;fillColor=#dae8fc;align=center;verticalAlign=middle;whiteSpace=wrap;rounded=0;sketch=1;hachureGap=4;jiggle=2;fontFamily=Architects Daughter;fontSource=https%3A%2F%2Ffonts.googleapis.com%2Fcss%3Ffamily%3DArchitects%2BDaughter;fontSize=20;" vertex="1" parent="1">
          <mxGeometry x="1875" y="850" width="60" height="30" as="geometry" />
        </mxCell>
        <mxCell id="KIbIVKKondeWLqKM8XB7-21" value="&lt;font style=&quot;font-size: 24px;&quot;&gt;1:s&lt;/font&gt;" style="text;html=1;strokeColor=#6c8ebf;fillColor=#dae8fc;align=center;verticalAlign=middle;whiteSpace=wrap;rounded=0;sketch=1;hachureGap=4;jiggle=2;fontFamily=Architects Daughter;fontSource=https%3A%2F%2Ffonts.googleapis.com%2Fcss%3Ffamily%3DArchitects%2BDaughter;fontSize=20;" vertex="1" parent="1">
          <mxGeometry x="1875" y="780" width="60" height="30" as="geometry" />
        </mxCell>
        <mxCell id="KIbIVKKondeWLqKM8XB7-22" value="" style="shape=partialRectangle;whiteSpace=wrap;html=1;bottom=1;right=1;left=1;top=0;fillColor=#dae8fc;routingCenterX=-0.5;sketch=1;hachureGap=4;jiggle=2;fontFamily=Architects Daughter;fontSource=https%3A%2F%2Ffonts.googleapis.com%2Fcss%3Ffamily%3DArchitects%2BDaughter;fontSize=20;strokeColor=#6c8ebf;" vertex="1" parent="1">
          <mxGeometry x="1760" y="1020" width="290" height="70" as="geometry" />
        </mxCell>
        <mxCell id="KIbIVKKondeWLqKM8XB7-23" value="&lt;font style=&quot;font-size: 15px;&quot;&gt;20:task&lt;/font&gt;" style="text;html=1;strokeColor=none;fillColor=#dae8fc;align=center;verticalAlign=middle;whiteSpace=wrap;rounded=0;sketch=1;hachureGap=4;jiggle=2;fontFamily=Architects Daughter;fontSource=https%3A%2F%2Ffonts.googleapis.com%2Fcss%3Ffamily%3DArchitects%2BDaughter;fontSize=20;" vertex="1" parent="1">
          <mxGeometry x="1875" y="1040" width="60" height="30" as="geometry" />
        </mxCell>
        <mxCell id="KIbIVKKondeWLqKM8XB7-24" value="&lt;font style=&quot;font-size: 24px;&quot;&gt;1:s&lt;/font&gt;" style="text;html=1;strokeColor=#6c8ebf;fillColor=#dae8fc;align=center;verticalAlign=middle;whiteSpace=wrap;rounded=0;sketch=1;hachureGap=4;jiggle=2;fontFamily=Architects Daughter;fontSource=https%3A%2F%2Ffonts.googleapis.com%2Fcss%3Ffamily%3DArchitects%2BDaughter;fontSize=20;" vertex="1" parent="1">
          <mxGeometry x="1875" y="970" width="60" height="30" as="geometry" />
        </mxCell>
        <mxCell id="KIbIVKKondeWLqKM8XB7-25" value="" style="endArrow=none;html=1;sketch=1;hachureGap=4;jiggle=2;fontFamily=Architects Daughter;fontSource=https%3A%2F%2Ffonts.googleapis.com%2Fcss%3Ffamily%3DArchitects%2BDaughter;fontSize=15;jumpSize=0;curved=1;" edge="1" parent="1">
          <mxGeometry width="50" height="50" relative="1" as="geometry">
            <mxPoint x="1730" y="1420" as="sourcePoint" />
            <mxPoint x="1730" y="640" as="targetPoint" />
          </mxGeometry>
        </mxCell>
        <mxCell id="KIbIVKKondeWLqKM8XB7-26" value="" style="shape=flexArrow;endArrow=classic;html=1;rounded=0;sketch=1;hachureGap=4;jiggle=2;fontFamily=Architects Daughter;fontSource=https%3A%2F%2Ffonts.googleapis.com%2Fcss%3Ffamily%3DArchitects%2BDaughter;fontSize=15;entryX=1.019;entryY=0.495;entryDx=0;entryDy=0;entryPerimeter=0;endWidth=8.870967741935484;endSize=5.556420233463036;width=5.369649805447471;exitX=0;exitY=0.5;exitDx=0;exitDy=0;" edge="1" parent="1" source="KIbIVKKondeWLqKM8XB7-19">
          <mxGeometry width="50" height="50" relative="1" as="geometry">
            <mxPoint x="1736.96" y="865.1500000000001" as="sourcePoint" />
            <mxPoint x="1690.0000000000002" y="864.8" as="targetPoint" />
            <Array as="points">
              <mxPoint x="1726.96" y="865.1500000000001" />
            </Array>
          </mxGeometry>
        </mxCell>
        <mxCell id="KIbIVKKondeWLqKM8XB7-27" value="" style="shape=flexArrow;endArrow=classic;html=1;rounded=0;sketch=1;hachureGap=4;jiggle=2;fontFamily=Architects Daughter;fontSource=https%3A%2F%2Ffonts.googleapis.com%2Fcss%3Ffamily%3DArchitects%2BDaughter;fontSize=15;entryX=1.019;entryY=0.495;entryDx=0;entryDy=0;entryPerimeter=0;endWidth=8.870967741935484;endSize=5.556420233463036;width=5.369649805447471;exitX=0;exitY=0.5;exitDx=0;exitDy=0;" edge="1" parent="1" source="KIbIVKKondeWLqKM8XB7-22">
          <mxGeometry width="50" height="50" relative="1" as="geometry">
            <mxPoint x="1736.96" y="1055.1499999999999" as="sourcePoint" />
            <mxPoint x="1690.0000000000002" y="1054.8" as="targetPoint" />
            <Array as="points">
              <mxPoint x="1726.96" y="1055.15" />
            </Array>
          </mxGeometry>
        </mxCell>
        <mxCell id="KIbIVKKondeWLqKM8XB7-28" value="" style="endArrow=none;html=1;sketch=1;hachureGap=4;jiggle=2;fontFamily=Architects Daughter;fontSource=https%3A%2F%2Ffonts.googleapis.com%2Fcss%3Ffamily%3DArchitects%2BDaughter;fontSize=15;jumpSize=0;curved=1;" edge="1" parent="1">
          <mxGeometry width="50" height="50" relative="1" as="geometry">
            <mxPoint x="2120" y="1410" as="sourcePoint" />
            <mxPoint x="2120" y="630" as="targetPoint" />
          </mxGeometry>
        </mxCell>
        <mxCell id="KIbIVKKondeWLqKM8XB7-29" value="" style="endArrow=none;html=1;sketch=1;hachureGap=4;jiggle=2;fontFamily=Architects Daughter;fontSource=https%3A%2F%2Ffonts.googleapis.com%2Fcss%3Ffamily%3DArchitects%2BDaughter;fontSize=15;jumpSize=0;curved=1;" edge="1" parent="1">
          <mxGeometry width="50" height="50" relative="1" as="geometry">
            <mxPoint x="2380" y="1400" as="sourcePoint" />
            <mxPoint x="2380" y="620" as="targetPoint" />
          </mxGeometry>
        </mxCell>
        <mxCell id="KIbIVKKondeWLqKM8XB7-31" value="&lt;font face=&quot;Long Cang&quot; data-font-src=&quot;https://fonts.googleapis.com/css?family=Long+Cang&quot; style=&quot;font-size: 33px;&quot;&gt;省略...&lt;/font&gt;" style="text;html=1;strokeColor=none;fillColor=none;align=center;verticalAlign=middle;whiteSpace=wrap;rounded=0;sketch=1;hachureGap=4;jiggle=2;fontFamily=Zhi Mang Xing;fontSource=https%3A%2F%2Ffonts.googleapis.com%2Fcss%3Ffamily%3DZhi%2BMang%2BXing;fontSize=33;" vertex="1" parent="1">
          <mxGeometry x="2220" y="970" width="100" height="70" as="geometry" />
        </mxCell>
        <mxCell id="KIbIVKKondeWLqKM8XB7-33" value="&lt;font face=&quot;Architects Daughter&quot; data-font-src=&quot;https://fonts.googleapis.com/css?family=Architects+Daughter&quot;&gt;2:Thread&lt;/font&gt;" style="rounded=0;whiteSpace=wrap;html=1;sketch=1;hachureGap=4;jiggle=2;fontFamily=Zhi Mang Xing;fontSource=https%3A%2F%2Ffonts.googleapis.com%2Fcss%3Ffamily%3DZhi%2BMang%2BXing;fontSize=33;fillColor=#d5e8d4;strokeColor=#82b366;" vertex="1" parent="1">
          <mxGeometry x="2530" y="830" width="280" height="490" as="geometry" />
        </mxCell>
        <mxCell id="KIbIVKKondeWLqKM8XB7-34" value="&lt;font data-font-src=&quot;https://fonts.googleapis.com/css?family=Long+Cang&quot; face=&quot;Long Cang&quot;&gt;操作系统&lt;/font&gt;" style="text;html=1;strokeColor=none;fillColor=none;align=center;verticalAlign=middle;whiteSpace=wrap;rounded=0;sketch=1;hachureGap=4;jiggle=2;fontFamily=Zhi Mang Xing;fontSource=https%3A%2F%2Ffonts.googleapis.com%2Fcss%3Ffamily%3DZhi%2BMang%2BXing;fontSize=33;" vertex="1" parent="1">
          <mxGeometry x="2580" y="780" width="180" height="40" as="geometry" />
        </mxCell>
        <mxCell id="KIbIVKKondeWLqKM8XB7-36" value="1000:task" style="rounded=0;whiteSpace=wrap;html=1;sketch=1;hachureGap=4;jiggle=2;fontFamily=Architects Daughter;fontSource=https%3A%2F%2Ffonts.googleapis.com%2Fcss%3Ffamily%3DArchitects%2BDaughter;fontSize=20;fillColor=#e1d5e7;strokeColor=#9673a6;" vertex="1" parent="1">
          <mxGeometry x="3000" y="835" width="240" height="480" as="geometry" />
        </mxCell>
        <mxCell id="KIbIVKKondeWLqKM8XB7-37" value="" style="shape=flexArrow;endArrow=classic;html=1;sketch=1;hachureGap=4;jiggle=2;fontFamily=Architects Daughter;fontSource=https%3A%2F%2Ffonts.googleapis.com%2Fcss%3Ffamily%3DArchitects%2BDaughter;fontSize=33;curved=1;jumpSize=0;exitX=0;exitY=0.5;exitDx=0;exitDy=0;width=20.833333333333336;endSize=13.725;" edge="1" parent="1" source="KIbIVKKondeWLqKM8XB7-33">
          <mxGeometry width="50" height="50" relative="1" as="geometry">
            <mxPoint x="2570" y="955" as="sourcePoint" />
            <mxPoint x="2380" y="1075" as="targetPoint" />
          </mxGeometry>
        </mxCell>
        <mxCell id="KIbIVKKondeWLqKM8XB7-38" value="" style="shape=flexArrow;endArrow=classic;html=1;sketch=1;hachureGap=4;jiggle=2;fontFamily=Architects Daughter;fontSource=https%3A%2F%2Ffonts.googleapis.com%2Fcss%3Ffamily%3DArchitects%2BDaughter;fontSize=33;curved=1;jumpSize=0;exitX=0;exitY=0.5;exitDx=0;exitDy=0;width=20.833333333333336;endSize=13.175;" edge="1" parent="1" source="KIbIVKKondeWLqKM8XB7-36">
          <mxGeometry width="50" height="50" relative="1" as="geometry">
            <mxPoint x="2960" y="1074.77" as="sourcePoint" />
            <mxPoint x="2810" y="1074.77" as="targetPoint" />
          </mxGeometry>
        </mxCell>
        <mxCell id="KIbIVKKondeWLqKM8XB7-39" value="&lt;font style=&quot;font-size: 36px;&quot; face=&quot;Long Cang&quot;&gt;执行完成1000个Task,需要耗时25s&lt;/font&gt;" style="text;html=1;strokeColor=none;fillColor=none;align=center;verticalAlign=middle;whiteSpace=wrap;rounded=0;sketch=1;hachureGap=4;jiggle=2;fontFamily=Zhi Mang Xing;fontSource=https%3A%2F%2Ffonts.googleapis.com%2Fcss%3Ffamily%3DZhi%2BMang%2BXing;fontSize=33;" vertex="1" parent="1">
          <mxGeometry x="1200" y="1645" width="440" height="220" as="geometry" />
        </mxCell>
      </root>
    </mxGraphModel>
  </diagram>
  <diagram id="NfuJAADH4PX09ctD3sWv" name="第 2 页">
    <mxGraphModel dx="1188" dy="1235" grid="1" gridSize="10" guides="1" tooltips="1" connect="1" arrows="1" fold="1" page="1" pageScale="1" pageWidth="827" pageHeight="1169" math="0" shadow="0">
      <root>
        <mxCell id="0" />
        <mxCell id="1" parent="0" />
        <mxCell id="QghIdtshlIfpMEiJNISg-1" value="" style="shape=partialRectangle;whiteSpace=wrap;html=1;bottom=1;right=1;left=1;top=0;fillColor=#dae8fc;routingCenterX=-0.5;sketch=1;hachureGap=4;jiggle=2;fontFamily=Architects Daughter;fontSource=https%3A%2F%2Ffonts.googleapis.com%2Fcss%3Ffamily%3DArchitects%2BDaughter;fontSize=20;strokeColor=#6c8ebf;" vertex="1" parent="1">
          <mxGeometry x="1400" y="830" width="290" height="70" as="geometry" />
        </mxCell>
        <mxCell id="QghIdtshlIfpMEiJNISg-2" value="task:0.5s" style="rounded=0;whiteSpace=wrap;html=1;sketch=1;hachureGap=4;jiggle=2;fontFamily=Architects Daughter;fontSource=https%3A%2F%2Ffonts.googleapis.com%2Fcss%3Ffamily%3DArchitects%2BDaughter;fontSize=20;fillColor=#e1d5e7;strokeColor=#9673a6;" vertex="1" parent="1">
          <mxGeometry x="1200" y="660" width="120" height="60" as="geometry" />
        </mxCell>
        <mxCell id="QghIdtshlIfpMEiJNISg-3" value="1:C" style="html=1;whiteSpace=wrap;container=1;recursiveResize=0;collapsible=0;sketch=1;hachureGap=4;jiggle=2;fontFamily=Architects Daughter;fontSource=https%3A%2F%2Ffonts.googleapis.com%2Fcss%3Ffamily%3DArchitects%2BDaughter;fontSize=20;fillColor=#f8cecc;strokeColor=#b85450;" vertex="1" parent="1">
          <mxGeometry x="1190" y="830" width="160" height="70" as="geometry" />
        </mxCell>
        <mxCell id="QghIdtshlIfpMEiJNISg-4" value="&lt;font style=&quot;font-size: 15px;&quot;&gt;20:task&lt;/font&gt;" style="text;html=1;strokeColor=none;fillColor=#dae8fc;align=center;verticalAlign=middle;whiteSpace=wrap;rounded=0;sketch=1;hachureGap=4;jiggle=2;fontFamily=Architects Daughter;fontSource=https%3A%2F%2Ffonts.googleapis.com%2Fcss%3Ffamily%3DArchitects%2BDaughter;fontSize=20;" vertex="1" parent="1">
          <mxGeometry x="1515" y="850" width="60" height="30" as="geometry" />
        </mxCell>
        <mxCell id="QghIdtshlIfpMEiJNISg-5" value="&lt;font style=&quot;font-size: 24px;&quot;&gt;1:s&lt;/font&gt;" style="text;html=1;strokeColor=#6c8ebf;fillColor=#dae8fc;align=center;verticalAlign=middle;whiteSpace=wrap;rounded=0;sketch=1;hachureGap=4;jiggle=2;fontFamily=Architects Daughter;fontSource=https%3A%2F%2Ffonts.googleapis.com%2Fcss%3Ffamily%3DArchitects%2BDaughter;fontSize=20;" vertex="1" parent="1">
          <mxGeometry x="1515" y="780" width="60" height="30" as="geometry" />
        </mxCell>
        <mxCell id="QghIdtshlIfpMEiJNISg-6" value="" style="shape=flexArrow;endArrow=classic;html=1;rounded=0;sketch=1;hachureGap=4;jiggle=2;fontFamily=Architects Daughter;fontSource=https%3A%2F%2Ffonts.googleapis.com%2Fcss%3Ffamily%3DArchitects%2BDaughter;fontSize=15;entryX=1.019;entryY=0.495;entryDx=0;entryDy=0;entryPerimeter=0;endWidth=8.870967741935484;endSize=5.556420233463036;width=5.369649805447471;" edge="1" parent="1" source="QghIdtshlIfpMEiJNISg-1" target="QghIdtshlIfpMEiJNISg-3">
          <mxGeometry width="50" height="50" relative="1" as="geometry">
            <mxPoint x="1460" y="930" as="sourcePoint" />
            <mxPoint x="1510" y="880" as="targetPoint" />
            <Array as="points">
              <mxPoint x="1390" y="865" />
            </Array>
          </mxGeometry>
        </mxCell>
        <mxCell id="QghIdtshlIfpMEiJNISg-7" value="" style="shape=partialRectangle;whiteSpace=wrap;html=1;bottom=1;right=1;left=1;top=0;fillColor=#dae8fc;routingCenterX=-0.5;sketch=1;hachureGap=4;jiggle=2;fontFamily=Architects Daughter;fontSource=https%3A%2F%2Ffonts.googleapis.com%2Fcss%3Ffamily%3DArchitects%2BDaughter;fontSize=20;strokeColor=#6c8ebf;" vertex="1" parent="1">
          <mxGeometry x="1400" y="1020" width="290" height="70" as="geometry" />
        </mxCell>
        <mxCell id="QghIdtshlIfpMEiJNISg-8" value="1:C" style="html=1;whiteSpace=wrap;container=1;recursiveResize=0;collapsible=0;sketch=1;hachureGap=4;jiggle=2;fontFamily=Architects Daughter;fontSource=https%3A%2F%2Ffonts.googleapis.com%2Fcss%3Ffamily%3DArchitects%2BDaughter;fontSize=20;fillColor=#f8cecc;strokeColor=#b85450;" vertex="1" parent="1">
          <mxGeometry x="1190" y="1020" width="160" height="70" as="geometry" />
        </mxCell>
        <mxCell id="QghIdtshlIfpMEiJNISg-9" value="&lt;font style=&quot;font-size: 15px;&quot;&gt;20:task&lt;/font&gt;" style="text;html=1;strokeColor=none;fillColor=#dae8fc;align=center;verticalAlign=middle;whiteSpace=wrap;rounded=0;sketch=1;hachureGap=4;jiggle=2;fontFamily=Architects Daughter;fontSource=https%3A%2F%2Ffonts.googleapis.com%2Fcss%3Ffamily%3DArchitects%2BDaughter;fontSize=20;" vertex="1" parent="1">
          <mxGeometry x="1515" y="1040" width="60" height="30" as="geometry" />
        </mxCell>
        <mxCell id="QghIdtshlIfpMEiJNISg-10" value="&lt;font style=&quot;font-size: 24px;&quot;&gt;1:s&lt;/font&gt;" style="text;html=1;strokeColor=#6c8ebf;fillColor=#dae8fc;align=center;verticalAlign=middle;whiteSpace=wrap;rounded=0;sketch=1;hachureGap=4;jiggle=2;fontFamily=Architects Daughter;fontSource=https%3A%2F%2Ffonts.googleapis.com%2Fcss%3Ffamily%3DArchitects%2BDaughter;fontSize=20;" vertex="1" parent="1">
          <mxGeometry x="1515" y="970" width="60" height="30" as="geometry" />
        </mxCell>
        <mxCell id="QghIdtshlIfpMEiJNISg-11" value="" style="shape=flexArrow;endArrow=classic;html=1;rounded=0;sketch=1;hachureGap=4;jiggle=2;fontFamily=Architects Daughter;fontSource=https%3A%2F%2Ffonts.googleapis.com%2Fcss%3Ffamily%3DArchitects%2BDaughter;fontSize=15;entryX=1.019;entryY=0.495;entryDx=0;entryDy=0;entryPerimeter=0;endWidth=8.870967741935484;endSize=5.556420233463036;width=5.369649805447471;" edge="1" parent="1" source="QghIdtshlIfpMEiJNISg-7" target="QghIdtshlIfpMEiJNISg-8">
          <mxGeometry width="50" height="50" relative="1" as="geometry">
            <mxPoint x="1460" y="1120" as="sourcePoint" />
            <mxPoint x="1510" y="1070" as="targetPoint" />
            <Array as="points">
              <mxPoint x="1390" y="1055" />
            </Array>
          </mxGeometry>
        </mxCell>
        <mxCell id="QghIdtshlIfpMEiJNISg-12" value="" style="endArrow=none;html=1;sketch=1;hachureGap=4;jiggle=2;fontFamily=Architects Daughter;fontSource=https%3A%2F%2Ffonts.googleapis.com%2Fcss%3Ffamily%3DArchitects%2BDaughter;fontSize=15;jumpSize=0;curved=1;" edge="1" parent="1">
          <mxGeometry width="50" height="50" relative="1" as="geometry">
            <mxPoint x="1380" y="1410" as="sourcePoint" />
            <mxPoint x="1380" y="630" as="targetPoint" />
          </mxGeometry>
        </mxCell>
        <mxCell id="QghIdtshlIfpMEiJNISg-13" value="" style="shape=partialRectangle;whiteSpace=wrap;html=1;bottom=1;right=1;left=1;top=0;fillColor=#dae8fc;routingCenterX=-0.5;sketch=1;hachureGap=4;jiggle=2;fontFamily=Architects Daughter;fontSource=https%3A%2F%2Ffonts.googleapis.com%2Fcss%3Ffamily%3DArchitects%2BDaughter;fontSize=20;strokeColor=#6c8ebf;" vertex="1" parent="1">
          <mxGeometry x="1760" y="830" width="290" height="70" as="geometry" />
        </mxCell>
        <mxCell id="QghIdtshlIfpMEiJNISg-14" value="&lt;font style=&quot;font-size: 15px;&quot;&gt;20:task&lt;/font&gt;" style="text;html=1;strokeColor=none;fillColor=#dae8fc;align=center;verticalAlign=middle;whiteSpace=wrap;rounded=0;sketch=1;hachureGap=4;jiggle=2;fontFamily=Architects Daughter;fontSource=https%3A%2F%2Ffonts.googleapis.com%2Fcss%3Ffamily%3DArchitects%2BDaughter;fontSize=20;" vertex="1" parent="1">
          <mxGeometry x="1875" y="850" width="60" height="30" as="geometry" />
        </mxCell>
        <mxCell id="QghIdtshlIfpMEiJNISg-15" value="&lt;font style=&quot;font-size: 24px;&quot;&gt;1:s&lt;/font&gt;" style="text;html=1;strokeColor=#6c8ebf;fillColor=#dae8fc;align=center;verticalAlign=middle;whiteSpace=wrap;rounded=0;sketch=1;hachureGap=4;jiggle=2;fontFamily=Architects Daughter;fontSource=https%3A%2F%2Ffonts.googleapis.com%2Fcss%3Ffamily%3DArchitects%2BDaughter;fontSize=20;" vertex="1" parent="1">
          <mxGeometry x="1875" y="780" width="60" height="30" as="geometry" />
        </mxCell>
        <mxCell id="QghIdtshlIfpMEiJNISg-16" value="" style="shape=partialRectangle;whiteSpace=wrap;html=1;bottom=1;right=1;left=1;top=0;fillColor=#dae8fc;routingCenterX=-0.5;sketch=1;hachureGap=4;jiggle=2;fontFamily=Architects Daughter;fontSource=https%3A%2F%2Ffonts.googleapis.com%2Fcss%3Ffamily%3DArchitects%2BDaughter;fontSize=20;strokeColor=#6c8ebf;" vertex="1" parent="1">
          <mxGeometry x="1760" y="1020" width="290" height="70" as="geometry" />
        </mxCell>
        <mxCell id="QghIdtshlIfpMEiJNISg-17" value="&lt;font style=&quot;font-size: 15px;&quot;&gt;20:task&lt;/font&gt;" style="text;html=1;strokeColor=none;fillColor=#dae8fc;align=center;verticalAlign=middle;whiteSpace=wrap;rounded=0;sketch=1;hachureGap=4;jiggle=2;fontFamily=Architects Daughter;fontSource=https%3A%2F%2Ffonts.googleapis.com%2Fcss%3Ffamily%3DArchitects%2BDaughter;fontSize=20;" vertex="1" parent="1">
          <mxGeometry x="1875" y="1040" width="60" height="30" as="geometry" />
        </mxCell>
        <mxCell id="QghIdtshlIfpMEiJNISg-18" value="&lt;font style=&quot;font-size: 24px;&quot;&gt;1:s&lt;/font&gt;" style="text;html=1;strokeColor=#6c8ebf;fillColor=#dae8fc;align=center;verticalAlign=middle;whiteSpace=wrap;rounded=0;sketch=1;hachureGap=4;jiggle=2;fontFamily=Architects Daughter;fontSource=https%3A%2F%2Ffonts.googleapis.com%2Fcss%3Ffamily%3DArchitects%2BDaughter;fontSize=20;" vertex="1" parent="1">
          <mxGeometry x="1875" y="970" width="60" height="30" as="geometry" />
        </mxCell>
        <mxCell id="QghIdtshlIfpMEiJNISg-19" value="" style="endArrow=none;html=1;sketch=1;hachureGap=4;jiggle=2;fontFamily=Architects Daughter;fontSource=https%3A%2F%2Ffonts.googleapis.com%2Fcss%3Ffamily%3DArchitects%2BDaughter;fontSize=15;jumpSize=0;curved=1;" edge="1" parent="1">
          <mxGeometry width="50" height="50" relative="1" as="geometry">
            <mxPoint x="1730" y="1420" as="sourcePoint" />
            <mxPoint x="1730" y="640" as="targetPoint" />
          </mxGeometry>
        </mxCell>
        <mxCell id="QghIdtshlIfpMEiJNISg-20" value="" style="shape=flexArrow;endArrow=classic;html=1;rounded=0;sketch=1;hachureGap=4;jiggle=2;fontFamily=Architects Daughter;fontSource=https%3A%2F%2Ffonts.googleapis.com%2Fcss%3Ffamily%3DArchitects%2BDaughter;fontSize=15;entryX=1.019;entryY=0.495;entryDx=0;entryDy=0;entryPerimeter=0;endWidth=8.870967741935484;endSize=5.556420233463036;width=5.369649805447471;exitX=0;exitY=0.5;exitDx=0;exitDy=0;" edge="1" parent="1" source="QghIdtshlIfpMEiJNISg-13">
          <mxGeometry width="50" height="50" relative="1" as="geometry">
            <mxPoint x="1736.96" y="865.1500000000001" as="sourcePoint" />
            <mxPoint x="1690" y="864.8" as="targetPoint" />
            <Array as="points">
              <mxPoint x="1726.96" y="865.1500000000001" />
            </Array>
          </mxGeometry>
        </mxCell>
        <mxCell id="QghIdtshlIfpMEiJNISg-21" value="" style="shape=flexArrow;endArrow=classic;html=1;rounded=0;sketch=1;hachureGap=4;jiggle=2;fontFamily=Architects Daughter;fontSource=https%3A%2F%2Ffonts.googleapis.com%2Fcss%3Ffamily%3DArchitects%2BDaughter;fontSize=15;entryX=1.019;entryY=0.495;entryDx=0;entryDy=0;entryPerimeter=0;endWidth=8.870967741935484;endSize=5.556420233463036;width=5.369649805447471;exitX=0;exitY=0.5;exitDx=0;exitDy=0;" edge="1" parent="1" source="QghIdtshlIfpMEiJNISg-16">
          <mxGeometry width="50" height="50" relative="1" as="geometry">
            <mxPoint x="1736.96" y="1055.1499999999999" as="sourcePoint" />
            <mxPoint x="1690" y="1054.8000000000002" as="targetPoint" />
            <Array as="points">
              <mxPoint x="1726.96" y="1055.15" />
            </Array>
          </mxGeometry>
        </mxCell>
        <mxCell id="QghIdtshlIfpMEiJNISg-22" value="" style="endArrow=none;html=1;sketch=1;hachureGap=4;jiggle=2;fontFamily=Architects Daughter;fontSource=https%3A%2F%2Ffonts.googleapis.com%2Fcss%3Ffamily%3DArchitects%2BDaughter;fontSize=15;jumpSize=0;curved=1;" edge="1" parent="1">
          <mxGeometry width="50" height="50" relative="1" as="geometry">
            <mxPoint x="2120" y="1410" as="sourcePoint" />
            <mxPoint x="2120" y="630" as="targetPoint" />
          </mxGeometry>
        </mxCell>
        <mxCell id="QghIdtshlIfpMEiJNISg-23" value="" style="endArrow=none;html=1;sketch=1;hachureGap=4;jiggle=2;fontFamily=Architects Daughter;fontSource=https%3A%2F%2Ffonts.googleapis.com%2Fcss%3Ffamily%3DArchitects%2BDaughter;fontSize=15;jumpSize=0;curved=1;" edge="1" parent="1">
          <mxGeometry width="50" height="50" relative="1" as="geometry">
            <mxPoint x="2380" y="1400" as="sourcePoint" />
            <mxPoint x="2380" y="620" as="targetPoint" />
          </mxGeometry>
        </mxCell>
        <mxCell id="QghIdtshlIfpMEiJNISg-24" value="&lt;font face=&quot;Long Cang&quot; data-font-src=&quot;https://fonts.googleapis.com/css?family=Long+Cang&quot; style=&quot;font-size: 33px;&quot;&gt;省略...&lt;/font&gt;" style="text;html=1;strokeColor=none;fillColor=none;align=center;verticalAlign=middle;whiteSpace=wrap;rounded=0;sketch=1;hachureGap=4;jiggle=2;fontFamily=Zhi Mang Xing;fontSource=https%3A%2F%2Ffonts.googleapis.com%2Fcss%3Ffamily%3DZhi%2BMang%2BXing;fontSize=33;" vertex="1" parent="1">
          <mxGeometry x="2220" y="970" width="100" height="70" as="geometry" />
        </mxCell>
        <mxCell id="QghIdtshlIfpMEiJNISg-25" value="&lt;font face=&quot;Architects Daughter&quot; data-font-src=&quot;https://fonts.googleapis.com/css?family=Architects+Daughter&quot;&gt;4:Thread&lt;/font&gt;" style="rounded=0;whiteSpace=wrap;html=1;sketch=1;hachureGap=4;jiggle=2;fontFamily=Zhi Mang Xing;fontSource=https%3A%2F%2Ffonts.googleapis.com%2Fcss%3Ffamily%3DZhi%2BMang%2BXing;fontSize=33;fillColor=#d5e8d4;strokeColor=#82b366;" vertex="1" parent="1">
          <mxGeometry x="2530" y="830" width="280" height="490" as="geometry" />
        </mxCell>
        <mxCell id="QghIdtshlIfpMEiJNISg-26" value="&lt;font data-font-src=&quot;https://fonts.googleapis.com/css?family=Long+Cang&quot; face=&quot;Long Cang&quot;&gt;操作系统&lt;/font&gt;" style="text;html=1;strokeColor=none;fillColor=none;align=center;verticalAlign=middle;whiteSpace=wrap;rounded=0;sketch=1;hachureGap=4;jiggle=2;fontFamily=Zhi Mang Xing;fontSource=https%3A%2F%2Ffonts.googleapis.com%2Fcss%3Ffamily%3DZhi%2BMang%2BXing;fontSize=33;" vertex="1" parent="1">
          <mxGeometry x="2580" y="780" width="180" height="40" as="geometry" />
        </mxCell>
        <mxCell id="QghIdtshlIfpMEiJNISg-27" value="1000:task" style="rounded=0;whiteSpace=wrap;html=1;sketch=1;hachureGap=4;jiggle=2;fontFamily=Architects Daughter;fontSource=https%3A%2F%2Ffonts.googleapis.com%2Fcss%3Ffamily%3DArchitects%2BDaughter;fontSize=20;fillColor=#e1d5e7;strokeColor=#9673a6;" vertex="1" parent="1">
          <mxGeometry x="3000" y="835" width="240" height="480" as="geometry" />
        </mxCell>
        <mxCell id="QghIdtshlIfpMEiJNISg-28" value="" style="shape=flexArrow;endArrow=classic;html=1;sketch=1;hachureGap=4;jiggle=2;fontFamily=Architects Daughter;fontSource=https%3A%2F%2Ffonts.googleapis.com%2Fcss%3Ffamily%3DArchitects%2BDaughter;fontSize=33;curved=1;jumpSize=0;exitX=0;exitY=0.5;exitDx=0;exitDy=0;width=20.833333333333336;endSize=13.725;" edge="1" parent="1" source="QghIdtshlIfpMEiJNISg-25">
          <mxGeometry width="50" height="50" relative="1" as="geometry">
            <mxPoint x="2570" y="955" as="sourcePoint" />
            <mxPoint x="2380" y="1075" as="targetPoint" />
          </mxGeometry>
        </mxCell>
        <mxCell id="QghIdtshlIfpMEiJNISg-29" value="" style="shape=flexArrow;endArrow=classic;html=1;sketch=1;hachureGap=4;jiggle=2;fontFamily=Architects Daughter;fontSource=https%3A%2F%2Ffonts.googleapis.com%2Fcss%3Ffamily%3DArchitects%2BDaughter;fontSize=33;curved=1;jumpSize=0;exitX=0;exitY=0.5;exitDx=0;exitDy=0;width=20.833333333333336;endSize=13.175;" edge="1" parent="1" source="QghIdtshlIfpMEiJNISg-27">
          <mxGeometry width="50" height="50" relative="1" as="geometry">
            <mxPoint x="2960" y="1074.77" as="sourcePoint" />
            <mxPoint x="2810.0000000000005" y="1074.77" as="targetPoint" />
          </mxGeometry>
        </mxCell>
        <mxCell id="QghIdtshlIfpMEiJNISg-30" value="&lt;font style=&quot;font-size: 36px;&quot; face=&quot;Long Cang&quot;&gt;执行完成1000个Task,需要耗时25s&lt;/font&gt;" style="text;html=1;strokeColor=none;fillColor=none;align=center;verticalAlign=middle;whiteSpace=wrap;rounded=0;sketch=1;hachureGap=4;jiggle=2;fontFamily=Zhi Mang Xing;fontSource=https%3A%2F%2Ffonts.googleapis.com%2Fcss%3Ffamily%3DZhi%2BMang%2BXing;fontSize=33;" vertex="1" parent="1">
          <mxGeometry x="1200" y="1645" width="440" height="220" as="geometry" />
        </mxCell>
      </root>
    </mxGraphModel>
  </diagram>
</mxfile>
